<svg width="480" height="671" viewBox="0 0 480 671" fill="none" xmlns="http://www.w3.org/2000/svg">
<rect width="480" height="671" fill="#E4D4FF"/>
<rect x="214.159" y="185.003" width="84.4921" height="113.133" rx="9.49654" fill="#9A7ED9"/>
<mask id="mask0_1302_52" style="mask-type:luminance" maskUnits="userSpaceOnUse" x="214" y="185" width="85" height="114">
<rect x="214.159" y="185.003" width="84.4921" height="113.133" rx="9.49654" fill="white"/>
</mask>
<g mask="url(#mask0_1302_52)">
<path d="M298.651 246.53C293.909 234.641 301.882 303.807 250.237 298.137C198.592 292.467 312.02 318.202 312.02 318.202L321.233 275.404" fill="#6F4EB9"/>
</g>
<rect x="221.439" y="194.298" width="69.9317" height="63.36" rx="5.66933" fill="#EFF3FC"/>
<mask id="mask1_1302_52" style="mask-type:luminance" maskUnits="userSpaceOnUse" x="221" y="194" width="71" height="64">
<rect x="221.439" y="194.298" width="69.9317" height="63.36" rx="5.66933" fill="white"/>
</mask>
<g mask="url(#mask1_1302_52)">
<path d="M219.244 225.978C214.159 197.15 235.154 194.096 266.903 194.298C298.652 194.5 214.159 185.004 214.159 185.004L203.994 188.254" fill="#D6DCF2"/>
</g>
<rect x="226.611" y="268.978" width="57.5628" height="6.42566" rx="3.21283" fill="#6F4EB9"/>
<rect x="226.611" y="278.799" width="41.8658" height="6.42566" rx="3.21283" fill="#6F4EB9"/>
<path d="M267.081 216.254V211.159H257.629V223.289C257.634 223.729 257.402 224.139 257.021 224.36C256.641 224.582 256.17 224.582 255.789 224.36C255.409 224.139 255.177 223.729 255.182 223.289V211.159H245.73V216.346C245.73 220.367 243.401 224.023 239.758 225.723L237.907 226.587V246.222C237.907 246.986 238.526 247.605 239.289 247.605H251.804C252.461 247.605 253.027 247.144 253.159 246.501L255.729 234.005H257.08L259.65 246.501C259.782 247.144 260.348 247.605 261.005 247.605H273.521C273.888 247.605 274.239 247.459 274.499 247.2C274.758 246.941 274.903 246.589 274.903 246.222V226.496L273.052 225.632C269.409 223.932 267.08 220.275 267.081 216.254Z" fill="#9A7ED9"/>
<path d="M269.635 211.159V216.254C269.641 219.28 271.393 222.031 274.132 223.317L274.904 223.677V211.159L269.635 211.159Z" fill="#9A7ED9"/>
<path d="M243.175 216.347V211.159H237.907V223.769L238.679 223.409C241.418 222.123 243.169 219.372 243.175 216.347Z" fill="#9A7ED9"/>
<path d="M274.737 206.184C274.737 205.171 273.916 204.35 272.904 204.35H239.906C238.894 204.35 238.073 205.171 238.073 206.184V209.296H274.737L274.737 206.184Z" fill="#6F4EB9"/>
<path d="M267.576 229.937L266.146 233.273C266.014 233.516 266.094 233.82 266.328 233.968C266.571 234.107 266.88 234.026 267.023 233.785L268.453 230.449C268.585 230.206 268.505 229.902 268.271 229.754C268.028 229.615 267.719 229.696 267.576 229.937Z" fill="#6F4EB9"/>
<path d="M276.75 283.738L274.356 285.629C274.158 285.828 274.158 286.149 274.356 286.347C274.557 286.538 274.872 286.538 275.074 286.347L277.468 284.456C277.666 284.257 277.666 283.936 277.468 283.738C277.267 283.547 276.952 283.547 276.75 283.738Z" fill="#6F4EB9"/>
<rect x="379.784" y="214.953" width="58.5932" height="78.4552" rx="6.5856" fill="#FFC562"/>
<mask id="mask2_1302_52" style="mask-type:luminance" maskUnits="userSpaceOnUse" x="379" y="214" width="60" height="80">
<rect x="379.784" y="214.953" width="58.5932" height="78.4552" rx="6.5856" fill="white"/>
</mask>
<g mask="url(#mask2_1302_52)">
<path d="M441.653 216.618C448.885 302.489 407.555 302.184 379.14 299.031C350.726 295.879 421.957 314.056 421.957 314.056L442.042 310.751L454.18 261.867" fill="#D89D35"/>
</g>
<rect x="384.833" y="221.399" width="48.4959" height="43.9386" rx="3.93154" fill="#EFF3FC"/>
<mask id="mask3_1302_52" style="mask-type:luminance" maskUnits="userSpaceOnUse" x="384" y="221" width="50" height="45">
<rect x="384.833" y="221.399" width="48.4959" height="43.9386" rx="3.93154" fill="white"/>
</mask>
<g mask="url(#mask3_1302_52)">
<path d="M375.683 252.579C381.208 214.241 416.197 219.199 416.197 219.199L361.973 217.441" fill="#D6DCF2"/>
</g>
<rect x="388.419" y="273.188" width="39.9183" height="4.45603" rx="2.22802" fill="#E84B23"/>
<rect x="388.419" y="279.998" width="29.0328" height="4.45603" rx="2.22802" fill="#E84B23"/>
<path d="M419.095 230.492H414.602C413.96 233.016 411.688 234.783 409.083 234.783C406.478 234.783 404.205 233.016 403.563 230.492H399.064V230.495L390.484 234.783L393.346 241.937L399.064 239.075V256.244H419.095V239.075L424.816 241.937L427.678 234.783L419.095 230.492Z" fill="#FFC562"/>
<mask id="mask4_1302_52" style="mask-type:luminance" maskUnits="userSpaceOnUse" x="390" y="230" width="38" height="27">
<path fill-rule="evenodd" clip-rule="evenodd" d="M419.095 230.492H414.602C413.96 233.016 411.688 234.783 409.083 234.783C406.478 234.783 404.205 233.016 403.563 230.492H399.064V230.495L390.484 234.783L393.346 241.937L399.064 239.075V256.244H419.095V239.075L424.816 241.937L427.678 234.783L419.095 230.492Z" fill="white"/>
</mask>
<g mask="url(#mask4_1302_52)">
<path d="M389.14 241.342C390.484 234.783 402.911 231.134 407.661 232.419C412.411 233.703 401.038 224.693 401.038 224.693L378.564 231.161" fill="#D89D35"/>
</g>
<path d="M408.407 244.414L407.412 245.403C407.288 245.543 407.295 245.755 407.427 245.887C407.559 246.019 407.771 246.025 407.91 245.901L408.904 244.912C409.028 244.773 409.021 244.561 408.889 244.43C408.758 244.298 408.546 244.291 408.407 244.414Z" fill="#D89D35"/>
<path d="M432.13 283.302C432.1 283.345 432.069 283.387 432.037 283.43C432.058 283.401 432.052 283.411 432.034 283.433L431.984 283.494C431.92 283.571 431.853 283.645 431.784 283.717C431.711 283.792 431.635 283.865 431.556 283.934C431.521 283.965 431.485 283.996 431.448 284.026L431.387 284.075C431.426 284.044 431.391 284.072 431.37 284.087C431.21 284.207 431.042 284.314 430.866 284.408C430.778 284.455 430.688 284.498 430.597 284.54C430.537 284.567 430.618 284.532 430.58 284.547L430.507 284.576C430.458 284.595 430.409 284.613 430.359 284.63C430.182 284.689 430.082 284.877 430.131 285.058C430.181 285.238 430.363 285.349 430.546 285.309C431.433 285.004 432.201 284.426 432.738 283.658C432.835 283.49 432.779 283.275 432.612 283.176C432.443 283.083 432.231 283.138 432.13 283.302H432.13Z" fill="#D89D35"/>
<path d="M79.502 228.06C80.6076 229.099 81.7975 230.045 83.0596 230.888C84.2997 231.717 85.5958 232.458 86.9385 233.108C88.6128 233.92 90.3493 234.598 92.1314 235.134C93.2209 235.459 93.8813 235.591 93.8813 235.591L93.9078 235.583C94.0656 235.537 94.9214 235.281 96.2072 234.775C98.1114 234.026 99.9574 233.136 101.73 232.114C103.001 231.382 104.227 230.574 105.401 229.695C106.278 229.037 107.12 228.334 107.923 227.588C108.922 226.661 109.849 225.659 110.695 224.59C112.171 222.736 113.337 220.655 114.147 218.427C114.657 217.005 115.01 215.531 115.199 214.032C115.317 213.097 115.376 212.156 115.375 211.214C115.375 210.524 115.32 209.835 115.212 209.154C114.96 207.595 114.45 206.09 113.701 204.7C113.082 203.544 112.307 202.479 111.399 201.533C110.732 200.838 109.991 200.216 109.189 199.68C108.042 198.909 106.768 198.345 105.425 198.015C104.584 197.811 103.722 197.708 102.857 197.708C99.5852 197.7 96.443 198.983 94.1121 201.278C94.0337 201.355 93.9563 201.433 93.8798 201.513C91.5312 199.074 88.2887 197.7 84.9029 197.708C84.2078 197.708 83.5144 197.775 82.8321 197.907C81.5457 198.16 80.3118 198.631 79.1831 199.298C78.1445 199.91 77.1948 200.663 76.3607 201.534C75.4442 202.488 74.6641 203.565 74.0423 204.733C73.2899 206.138 72.7808 207.661 72.5365 209.236C72.4362 209.891 72.3857 210.552 72.3853 211.215C72.3839 212.258 72.4446 213.301 72.5671 214.337C72.7476 215.879 73.0836 217.4 73.5701 218.875C74.3153 221.12 75.4246 223.228 76.8536 225.114C77.6528 226.168 78.5387 227.153 79.502 228.06Z" fill="#BB393C"/>
<mask id="mask5_1302_52" style="mask-type:luminance" maskUnits="userSpaceOnUse" x="72" y="197" width="44" height="39">
<path fill-rule="evenodd" clip-rule="evenodd" d="M79.502 228.06C80.6076 229.099 81.7975 230.045 83.0596 230.888C84.2997 231.717 85.5958 232.458 86.9385 233.108C88.6128 233.92 90.3493 234.598 92.1314 235.134C93.2209 235.459 93.8813 235.591 93.8813 235.591L93.9078 235.583C94.0656 235.537 94.9214 235.281 96.2072 234.775C98.1114 234.026 99.9574 233.136 101.73 232.114C103.001 231.382 104.227 230.574 105.401 229.695C106.278 229.037 107.12 228.334 107.923 227.588C108.922 226.661 109.849 225.659 110.695 224.59C112.171 222.736 113.337 220.655 114.147 218.427C114.657 217.005 115.01 215.531 115.199 214.032C115.317 213.097 115.376 212.156 115.375 211.214C115.375 210.524 115.32 209.835 115.212 209.154C114.96 207.595 114.45 206.09 113.701 204.7C113.082 203.544 112.307 202.479 111.399 201.533C110.732 200.838 109.991 200.216 109.189 199.68C108.042 198.909 106.768 198.345 105.425 198.015C104.584 197.811 103.722 197.708 102.857 197.708C99.5852 197.7 96.443 198.983 94.1121 201.278C94.0337 201.355 93.9563 201.433 93.8798 201.513C91.5312 199.074 88.2887 197.7 84.9029 197.708C84.2078 197.708 83.5144 197.775 82.8321 197.907C81.5457 198.16 80.3118 198.631 79.1831 199.298C78.1445 199.91 77.1948 200.663 76.3607 201.534C75.4442 202.488 74.6641 203.565 74.0423 204.733C73.2899 206.138 72.7808 207.661 72.5365 209.236C72.4362 209.891 72.3857 210.552 72.3853 211.215C72.3839 212.258 72.4446 213.301 72.5671 214.337C72.7476 215.879 73.0836 217.4 73.5701 218.875C74.3153 221.12 75.4246 223.228 76.8536 225.114C77.6528 226.168 78.5387 227.153 79.502 228.06Z" fill="white"/>
</mask>
<g mask="url(#mask5_1302_52)">
<path d="M95.6933 196.513C118.814 194.157 110.954 231.489 92.1317 235.134C73.3092 238.779 106.296 241.871 106.296 241.871L133.688 197.707H121.317" fill="#90282A"/>
</g>
<path d="M84.7473 207.149C84.431 207.856 84.4245 208.663 84.7295 209.375C84.7956 209.487 84.9392 209.524 85.0514 209.459C85.1606 209.391 85.1975 209.25 85.1354 209.137C84.9051 208.575 84.9115 207.943 85.1533 207.386C85.2149 207.273 85.1781 207.132 85.0693 207.064C84.9571 206.999 84.8137 207.037 84.7473 207.148V207.149Z" fill="#90282A"/>
<path d="M101.837 223.535C101.261 224.699 100.236 225.578 98.9977 225.969C98.7094 226.059 98.8326 226.514 99.1229 226.423C100.479 225.999 101.605 225.042 102.243 223.772C102.378 223.502 101.971 223.263 101.837 223.535L101.837 223.535Z" fill="#90282A"/>
<path d="M363.69 194.15C363.776 191.851 362.35 189.765 360.176 189.01C360.126 189 360.075 188.996 360.025 188.998H349.722C349.683 188.998 349.66 188.798 349.669 188.763C350.582 185.704 350.831 182.485 350.399 179.322L350.396 179.312C350.559 176.556 348.468 174.184 345.714 174C343.2 174.144 341.196 176.155 341.063 178.669H341.06C340.114 187.572 334.076 190.228 332.718 190.72C332.71 190.721 332.701 190.721 332.693 190.72C332.611 190.712 332.528 190.712 332.446 190.72H326.111C325.115 190.78 324.356 191.635 324.414 192.631V214.709C324.387 215.18 324.553 215.641 324.872 215.987C325.192 216.334 325.639 216.535 326.111 216.546H355.306C355.472 216.555 355.639 216.555 355.806 216.546C357.645 216.502 359.281 215.365 359.962 213.656C360.301 212.923 363.482 195.697 363.482 195.697H363.485C363.545 195.463 363.591 195.224 363.622 194.984L363.636 194.906V194.9C363.67 194.652 363.688 194.402 363.69 194.151" fill="#FFC562"/>
<mask id="mask6_1302_52" style="mask-type:luminance" maskUnits="userSpaceOnUse" x="324" y="174" width="40" height="43">
<path fill-rule="evenodd" clip-rule="evenodd" d="M363.69 194.15C363.776 191.851 362.35 189.765 360.176 189.01C360.126 189 360.075 188.996 360.025 188.998H349.722C349.683 188.998 349.66 188.798 349.669 188.763C350.582 185.704 350.831 182.485 350.399 179.322L350.396 179.312C350.559 176.556 348.468 174.184 345.714 174C343.2 174.144 341.196 176.155 341.063 178.669H341.06C340.114 187.572 334.076 190.228 332.718 190.72C332.71 190.721 332.701 190.721 332.693 190.72C332.611 190.712 332.528 190.712 332.446 190.72H326.111C325.115 190.78 324.356 191.635 324.414 192.631V214.709C324.387 215.18 324.553 215.641 324.872 215.987C325.192 216.334 325.639 216.535 326.111 216.546H355.306C355.472 216.555 355.639 216.555 355.806 216.546C357.645 216.502 359.281 215.365 359.962 213.656C360.301 212.923 363.482 195.697 363.482 195.697H363.485C363.545 195.463 363.591 195.224 363.622 194.984L363.636 194.906V194.9C363.67 194.652 363.688 194.402 363.69 194.151" fill="white"/>
</mask>
<g mask="url(#mask6_1302_52)">
<path d="M330.789 199.7C334.974 196.085 331.36 217.175 348.672 218.045C365.983 218.915 318.216 224.812 318.216 224.812L323.158 208.071" fill="#D89D35"/>
<path d="M352.155 181.626L349.723 188.999C349.723 188.999 349.67 190.317 347.549 192.186C345.427 194.054 360.176 189.01 360.176 189.01L356.55 185.581" fill="#D89D35"/>
</g>
<rect x="318.216" y="187.656" width="14.824" height="30.3883" rx="1.596" fill="#FE7578"/>
<mask id="mask7_1302_52" style="mask-type:luminance" maskUnits="userSpaceOnUse" x="318" y="187" width="16" height="32">
<rect x="318.216" y="187.656" width="14.824" height="30.3883" rx="1.596" fill="white"/>
</mask>
<g mask="url(#mask7_1302_52)">
<path d="M317.608 204.392C316.285 191.347 319.636 187.436 327.175 187.656C334.715 187.877 311.736 184.645 311.736 184.645L310.061 189.433" fill="#E55A61"/>
</g>
<circle cx="325.628" cy="195.275" r="2.47027" fill="#EFF3FC"/>
<path d="M345.844 193.166C348.324 192.979 349.866 188.027 349.866 188.027L345.844 193.166Z" fill="#FFC562"/>
<path d="M354.84 197.272C354.306 198.846 353.417 200.277 352.242 201.453C352.148 201.554 352.15 201.711 352.248 201.808C352.345 201.905 352.502 201.908 352.602 201.814C353.838 200.574 354.772 199.066 355.332 197.407C355.438 197.096 354.946 196.962 354.84 197.272Z" fill="#D89D35"/>
<path d="M326.323 207.794C326.016 209.444 326.376 211.148 327.323 212.533C327.508 212.802 327.951 212.547 327.764 212.276C326.885 211.01 326.544 209.447 326.815 207.929C326.874 207.608 326.383 207.471 326.323 207.794Z" fill="#E55A61"/>
<mask id="mask8_1302_52" style="mask-type:luminance" maskUnits="userSpaceOnUse" x="8" y="202" width="462" height="295">
<rect x="8" y="202.59" width="461.751" height="294.277" fill="white"/>
</mask>
<g mask="url(#mask8_1302_52)">
<path d="M43.3191 345.9C43.3191 345.9 44.7735 272.683 47.9576 261.682C47.9576 261.682 45.2864 255.028 43.7487 250.396C42.211 245.764 47.5455 230.186 53.9666 232.837C53.9666 232.837 59.3394 231.522 60.5791 234.262C60.5791 234.262 65.2069 233.029 66.1747 234.206C66.1747 234.206 70.2447 233.693 70.6196 234.31C71.8059 236.261 71.7931 248.835 71.7931 248.835C71.9051 250.796 71.5123 252.753 70.6524 254.52C69.345 256.343 63.7207 262.345 63.7207 262.345L65.5652 333.183L64.3662 351.951L43.3191 345.9Z" fill="#FF9763"/>
<mask id="mask9_1302_52" style="mask-type:luminance" maskUnits="userSpaceOnUse" x="43" y="232" width="29" height="120">
<path fill-rule="evenodd" clip-rule="evenodd" d="M43.3191 345.9C43.3191 345.9 44.7735 272.683 47.9576 261.682C47.9576 261.682 45.2864 255.028 43.7487 250.396C42.211 245.764 47.5455 230.186 53.9666 232.837C53.9666 232.837 59.3394 231.522 60.5791 234.262C60.5791 234.262 65.2069 233.029 66.1747 234.206C66.1747 234.206 70.2447 233.693 70.6196 234.31C71.8059 236.261 71.7931 248.835 71.7931 248.835C71.9051 250.796 71.5123 252.753 70.6524 254.52C69.345 256.343 63.7207 262.345 63.7207 262.345L65.5652 333.183L64.3662 351.951L43.3191 345.9Z" fill="white"/>
</mask>
<g mask="url(#mask9_1302_52)">
<path d="M22.264 275.613C36.8585 267.955 65.8857 274.207 65.8857 274.207L64.9293 279.69L35.7244 281.718" fill="#E84B23"/>
</g>
<path d="M55.4956 255.247C56.4883 252.341 58.2243 248.52 60.7107 247.527L56.5404 245.486C56.5404 245.486 49.4172 250.95 48.6662 247.047C48.6662 247.047 55.8378 240.391 57.2724 240.143C58.7069 239.894 72.2503 243.688 72.4584 244.464C72.6666 245.24 71.8798 253 70.6524 254.518C69.425 256.036 63.7207 262.344 63.7207 262.344" fill="#FF9763"/>
<path d="M37.1863 283.768C37.0262 276.539 65.8857 274.207 65.8857 274.207L69.7056 334.605L145.728 331.379L157.295 378.508L55.0723 371.31C45.9516 369.36 39.3561 361.413 39.1213 352.089C38.5404 330.224 37.3115 289.422 37.1863 283.768Z" fill="#FE7578"/>
<mask id="mask10_1302_52" style="mask-type:luminance" maskUnits="userSpaceOnUse" x="37" y="274" width="121" height="105">
<path fill-rule="evenodd" clip-rule="evenodd" d="M37.1863 283.768C37.0262 276.539 65.8857 274.207 65.8857 274.207L69.7056 334.605L145.728 331.379L157.295 378.508L55.0723 371.31C45.9516 369.36 39.3561 361.413 39.1213 352.089C38.5404 330.224 37.3115 289.422 37.1863 283.768Z" fill="white"/>
</mask>
<g mask="url(#mask10_1302_52)">
<path d="M6.89036 364.686C119.803 387.088 137.659 350.841 137.659 350.841L151.925 392.909L92.6031 410.691L4.19194 376.635" fill="#BA393C"/>
<path d="M29.1893 306.214C37.3913 291.35 71.8 287.412 71.8 287.412" stroke="#BA393C" stroke-width="2.32932" stroke-linecap="round" stroke-linejoin="round"/>
<path d="M43.3191 275.748C41.2059 279.683 42.6559 295.278 42.6559 295.278" stroke="#BA393C" stroke-width="2.32932" stroke-linecap="round" stroke-linejoin="round"/>
<path d="M49.2405 272.11C47.1272 276.045 48.5772 291.64 48.5772 291.64" stroke="#BA393C" stroke-width="2.32932" stroke-linecap="round" stroke-linejoin="round"/>
<path d="M56.4215 270.391C54.3082 274.326 55.7582 289.921 55.7582 289.921" stroke="#BA393C" stroke-width="2.32932" stroke-linecap="round" stroke-linejoin="round"/>
<path d="M62.4721 269.197C60.3589 273.132 61.8089 288.727 61.8089 288.727" stroke="#BA393C" stroke-width="2.32932" stroke-linecap="round" stroke-linejoin="round"/>
<ellipse cx="44.2981" cy="370.473" rx="12.8058" ry="22.938" transform="rotate(-75.6405 44.2981 370.473)" fill="#BA393C"/>
</g>
<path d="M168.749 774.439C187.166 783.347 214.019 767.63 214.019 767.63L172.92 608.162L186.406 438.65L120.288 458.255C120.288 458.255 117.768 561.5 121.198 608.104C122.847 630.488 168.749 774.439 168.749 774.439Z" fill="#274B69"/>
<mask id="mask11_1302_52" style="mask-type:luminance" maskUnits="userSpaceOnUse" x="119" y="438" width="96" height="340">
<path fill-rule="evenodd" clip-rule="evenodd" d="M168.749 774.439C187.166 783.347 214.019 767.63 214.019 767.63L172.92 608.162L186.406 438.65L120.288 458.255C120.288 458.255 117.768 561.5 121.198 608.104C122.847 630.488 168.749 774.439 168.749 774.439Z" fill="white"/>
</mask>
<g mask="url(#mask11_1302_52)">
<path d="M164.369 452.251C157.835 509.481 121.428 441.798 122.758 516.962C124.373 608.196 87.9473 500.455 87.9473 500.455L103.611 449.05" fill="#11314B"/>
</g>
<path d="M153.821 510.017L184.317 601.754L278.07 782.116C278.07 782.116 313.502 781.233 320.825 769.963L234.934 592.018L202.221 438.668L136.553 458.075" fill="#274B69"/>
<path d="M209.996 460.407L210.789 473.836C210.789 473.836 180.529 495.537 119.395 471.599L117.949 457.644C152.56 471.84 209.996 460.407 209.996 460.407Z" fill="#FF9763"/>
<path d="M151.154 466.927C150.823 466.363 150.234 465.999 149.582 465.955C149.058 465.92 148.542 466.094 148.146 466.439C147.751 466.784 147.509 467.272 147.473 467.796L146.671 479.609C146.636 480.133 146.81 480.649 147.155 481.045C147.5 481.44 147.988 481.682 148.512 481.718C149.035 481.753 149.552 481.579 149.947 481.234C150.342 480.889 150.585 480.401 150.62 479.877" fill="#FFC562"/>
<path d="M185.557 473.63L187.952 477.3C188.581 478.265 188.435 479.541 187.605 480.339L184.258 483.554C183.72 484.078 182.98 484.343 182.231 484.281C176.598 483.807 152.349 481.682 147.67 479.774L149.432 467.962C149.432 467.962 173.331 472.448 182.402 472.055C183.659 471.982 184.86 472.582 185.557 473.63Z" fill="#FFC562"/>
<path d="M161.968 482.494C163.219 480.512 163.896 478.222 163.926 475.878C164.132 473.198 163.417 470.527 161.899 468.308" stroke="white" stroke-width="2.32932" stroke-linecap="round" stroke-linejoin="round"/>
<path d="M138.196 331.798C138.196 331.798 163.591 322.03 222.757 333.442C224.997 333.879 226.931 335.28 228.046 337.271C229.161 339.263 229.343 341.644 228.544 343.782C223.307 357.897 214.29 392.03 212.769 462.13C212.769 462.13 159.849 491.493 114.317 461.304C114.317 461.304 106.948 397.347 122.405 356.382" fill="#FE7578"/>
<mask id="mask12_1302_52" style="mask-type:luminance" maskUnits="userSpaceOnUse" x="112" y="327" width="118" height="148">
<path fill-rule="evenodd" clip-rule="evenodd" d="M138.196 331.798C138.196 331.798 163.591 322.03 222.757 333.442C224.997 333.879 226.931 335.28 228.046 337.271C229.161 339.263 229.343 341.644 228.544 343.782C223.307 357.897 214.29 392.03 212.769 462.13C212.769 462.13 159.849 491.493 114.317 461.304C114.317 461.304 106.948 397.347 122.405 356.382" fill="white"/>
</mask>
<g mask="url(#mask12_1302_52)">
<path d="M209.136 375.943C190.749 456.649 220.174 469.553 118.966 466.754C6.17048 463.635 114.787 512.314 114.787 512.314C114.787 512.314 244.768 502.846 244.775 496.513C244.781 490.181 251.171 382.11 251.171 382.11L228.313 357.603L215.206 359.38" fill="#BA393C"/>
<path d="M157.924 366.688L129.451 403.845L180.051 411.449L157.924 366.688Z" fill="#FFC562"/>
<ellipse cx="155.889" cy="392.95" rx="20.2512" ry="21.7624" transform="rotate(-37.784 155.889 392.95)" stroke="#BA393C" stroke-width="2.32932" stroke-linecap="round" stroke-linejoin="round"/>
<path d="M144.074 322.829C148.211 359.63 162.547 369.711 200.587 327.906C238.626 286.101 173.411 314.323 173.411 314.323L147.595 323.744" fill="#F0F3FC"/>
</g>
<path d="M306.915 383.947C306.915 383.947 340.712 314.546 343.146 302.799C343.146 302.799 348.717 297.739 352.308 294.074C355.9 290.409 358.609 273.406 351.613 273.039C351.613 273.039 347.452 269.414 345.033 271.436C345.033 271.436 341.497 268.219 340.07 268.894C340.07 268.894 336.687 266.601 336.057 267.013C334.064 268.318 328.049 280.131 328.049 280.131C327.013 281.912 326.427 283.918 326.341 285.977C326.633 288.271 328.771 296.41 328.771 296.41L293.173 362.107L285.247 380.264L306.915 383.947Z" fill="#FF9763"/>
<mask id="mask13_1302_52" style="mask-type:luminance" maskUnits="userSpaceOnUse" x="285" y="266" width="71" height="118">
<path fill-rule="evenodd" clip-rule="evenodd" d="M306.915 383.947C306.915 383.947 340.712 314.546 343.146 302.799C343.146 302.799 348.717 297.739 352.308 294.074C355.9 290.409 358.609 273.406 351.613 273.039C351.613 273.039 347.452 269.414 345.033 271.436C345.033 271.436 341.497 268.219 340.07 268.894C340.07 268.894 336.687 266.601 336.057 267.013C334.064 268.318 328.049 280.131 328.049 280.131C327.013 281.912 326.427 283.918 326.341 285.977C326.633 288.271 328.771 296.41 328.771 296.41L293.173 362.107L285.247 380.264L306.915 383.947Z" fill="white"/>
</mask>
<g mask="url(#mask13_1302_52)">
<path d="M346.585 325.003C342.965 304.431 323.949 305.308 323.949 305.308L324.363 329.663L337.38 330.434" fill="#E84B23"/>
</g>
<path d="M339.895 288.875C340.022 287.093 339.551 285.319 338.557 283.835L343.254 283.773C343.254 283.773 346.987 292.073 349.528 288.743C349.528 288.743 346.323 279.301 345.163 278.43C344.003 277.559 330.107 275.096 329.55 275.732C328.992 276.368 325.974 284.004 326.341 285.976C326.708 287.948 328.771 296.409 328.771 296.409" fill="#FF9763"/>
<path d="M194.585 368.052L282.015 401.869C290.397 403.7 299.648 398.907 304.385 390.267C315.472 370.047 339.824 328.971 342.689 323.744C346.472 316.844 322.114 304.256 322.114 304.256L289.452 357.14L225.205 334.361" fill="#FE7578"/>
<mask id="mask14_1302_52" style="mask-type:luminance" maskUnits="userSpaceOnUse" x="194" y="304" width="150" height="99">
<path fill-rule="evenodd" clip-rule="evenodd" d="M194.585 368.052L282.015 401.869C290.397 403.7 299.648 398.907 304.385 390.267C315.472 370.047 339.824 328.971 342.689 323.744C346.472 316.844 322.114 304.256 322.114 304.256L289.452 357.14L225.205 334.361" fill="white"/>
</mask>
<g mask="url(#mask14_1302_52)">
<circle cx="302.706" cy="411.299" r="27.3517" fill="#BA393C"/>
</g>
<path d="M186.98 329.003L161.597 345.201L159.075 336.319L159.127 290.089L187.023 290.119L186.98 329.003Z" fill="#FF9763"/>
<mask id="mask15_1302_52" style="mask-type:luminance" maskUnits="userSpaceOnUse" x="159" y="290" width="29" height="56">
<path fill-rule="evenodd" clip-rule="evenodd" d="M186.98 329.003L161.597 345.201L159.075 336.319L159.127 290.089L187.023 290.119L186.98 329.003Z" fill="white"/>
</mask>
<g mask="url(#mask15_1302_52)">
<path d="M147.424 334.664C169.558 328.335 158.143 321.229 169.759 316.422C181.375 311.615 169.467 306.22 169.467 306.22L161.557 302.707L148.111 307.28L151.566 324.153" fill="#E84B23"/>
</g>
<path d="M187.234 291.34L192.663 265.344L151.464 268.217C146.219 275.576 143.221 298.793 145.887 311.531C146.974 316.731 162.858 313.587 173.709 310.793" fill="#FF9763"/>
<mask id="mask16_1302_52" style="mask-type:luminance" maskUnits="userSpaceOnUse" x="144" y="265" width="49" height="50">
<path fill-rule="evenodd" clip-rule="evenodd" d="M187.234 291.34L192.663 265.344L151.464 268.217C146.219 275.576 143.221 298.793 145.887 311.531C146.974 316.731 162.858 313.587 173.709 310.793" fill="white"/>
</mask>
<g mask="url(#mask16_1302_52)">
<ellipse opacity="0.27" cx="143.234" cy="293.613" rx="3.97135" ry="5.35265" transform="rotate(-86.4865 143.234 293.613)" fill="#E84B23"/>
<ellipse opacity="0.27" cx="168.457" cy="295.271" rx="3.97135" ry="5.35265" transform="rotate(-86.4865 168.457 295.271)" fill="#E84B23"/>
<path d="M149.215 288.774C148.721 288.713 148.272 288.458 147.968 288.065C147.663 287.672 147.529 287.173 147.594 286.68L148.04 283.579C148.202 282.553 149.161 281.849 150.189 282C150.682 282.061 151.131 282.316 151.436 282.709C151.74 283.102 151.875 283.6 151.81 284.093L151.364 287.194C151.201 288.221 150.243 288.925 149.215 288.774Z" fill="#190000"/>
<path d="M163.369 289.653C162.875 289.593 162.426 289.337 162.122 288.944C161.817 288.551 161.683 288.053 161.748 287.56L162.194 284.459C162.356 283.432 163.315 282.728 164.343 282.879C164.836 282.94 165.285 283.195 165.59 283.588C165.894 283.981 166.029 284.48 165.964 284.973L165.518 288.074C165.355 289.1 164.397 289.804 163.369 289.653Z" fill="#190000"/>
<path d="M150.341 277.609C146.337 278.177 147.103 280.364 149.629 280.168C152.156 279.971 152.956 277.238 150.341 277.609Z" fill="#190000"/>
<path d="M164.872 278.393C168.561 280.011 167.522 281.791 165.148 280.927C162.774 280.062 162.462 277.336 164.872 278.393Z" fill="#190000"/>
<path d="M157.536 289.641C157.502 290.894 156.414 290.37 155.056 290.335C153.697 290.301 152.582 290.77 152.616 289.517C152.756 288.241 153.85 287.285 155.133 287.317C156.416 287.35 157.461 288.36 157.536 289.641Z" fill="#E84B23"/>
<path d="M149.575 296.079C150.864 305.183 159.783 301.815 160.213 296.215C160.228 295.921 160.057 295.651 159.785 295.539C156.674 294.383 153.266 294.301 150.103 295.307C149.758 295.395 149.532 295.726 149.575 296.079Z" fill="#C1525F"/>
<mask id="mask17_1302_52" style="mask-type:luminance" maskUnits="userSpaceOnUse" x="149" y="294" width="12" height="8">
<path fill-rule="evenodd" clip-rule="evenodd" d="M149.575 296.079C150.864 305.183 159.783 301.815 160.213 296.215C160.228 295.921 160.057 295.651 159.785 295.539C156.674 294.383 153.266 294.301 150.103 295.307C149.758 295.395 149.532 295.726 149.575 296.079Z" fill="white"/>
</mask>
<g mask="url(#mask17_1302_52)">
<ellipse cx="155.959" cy="301.363" rx="4.72147" ry="4.11936" transform="rotate(-13.4431 155.959 301.363)" fill="#993443"/>
<path d="M151.271 294.7C151.217 295.227 151.278 295.761 151.452 296.262C152.415 297.196 157.206 296.91 157.873 296.406C158.042 295.73 158.129 295.037 158.133 294.34L152.007 294.393" fill="#F0F3FC"/>
</g>
</g>
<path d="M153.769 249.793C122.302 247.692 135.86 256.016 141.811 258.366C147.763 260.717 99.8303 245.451 107.95 258.329C116.071 271.207 141.513 270.465 166.679 272.295C191.845 274.124 171.274 292.58 183.26 294.689C195.246 296.798 215.413 253.909 153.769 249.793Z" fill="#3A3530"/>
<path d="M150.304 328.368L158.845 321.653L161.597 345.201L156.333 350.701L150.304 328.368Z" fill="#F0F3FC"/>
<path d="M164.629 351.451L161.597 345.201L187.023 319.331L194.585 329.213L164.629 351.451Z" fill="#F0F3FC"/>
<path d="M183.826 493.789C186.449 518.274 207.145 512.152 207.145 512.152L183.826 493.789Z" fill="#274B69"/>
<path d="M183.826 493.789C186.449 518.274 207.145 512.152 207.145 512.152" stroke="#11314B" stroke-width="3.10582"/>
<ellipse cx="147.713" cy="285.744" rx="7.65173" ry="4.73676" transform="rotate(-83.1696 147.713 285.744)" stroke="#190000" stroke-width="2.32932" stroke-linecap="round" stroke-linejoin="round"/>
<ellipse cx="163.763" cy="285.882" rx="7.65173" ry="5.8963" transform="rotate(-83.1696 163.763 285.882)" stroke="#190000" stroke-width="2.32932" stroke-linecap="round" stroke-linejoin="round"/>
<path d="M157.839 286.438C157.119 285.583 156.029 285.131 154.916 285.226C153.803 285.32 152.804 285.949 152.238 286.912" stroke="#190000" stroke-width="2.32932" stroke-linecap="round" stroke-linejoin="round"/>
<path d="M169.98 285.19L179.162 285.883" stroke="#190000" stroke-width="2.32932" stroke-linecap="round" stroke-linejoin="round"/>
<path d="M174.353 290.473C180.06 280.402 199.089 279.414 185.152 300.993L174.353 290.473Z" fill="#FF9763"/>
<path d="M154.114 259.744C154.347 260.79 155.033 261.678 155.986 262.169C157.018 262.653 158.14 262.913 159.28 262.934C159.93 262.931 160.456 262.405 160.458 261.755C160.442 261.111 159.924 260.593 159.28 260.576C158.967 260.55 158.655 260.523 158.344 260.483L158.658 260.525C158.3 260.482 157.947 260.408 157.602 260.307C157.511 260.279 157.421 260.245 157.331 260.214C157.117 260.141 157.575 260.333 157.307 260.201C157.174 260.136 157.045 260.062 156.922 259.979C156.826 259.914 156.718 259.764 156.946 260.004C156.893 259.948 156.825 259.902 156.769 259.848C156.713 259.794 156.658 259.737 156.606 259.678C156.58 259.649 156.555 259.619 156.531 259.588C156.648 259.743 156.681 259.784 156.628 259.71C156.549 259.587 156.486 259.46 156.414 259.334C156.592 259.643 156.467 259.461 156.435 259.345C156.415 259.27 156.399 259.194 156.387 259.117C156.305 258.821 156.111 258.568 155.845 258.413C155.575 258.255 155.254 258.21 154.951 258.29C154.649 258.369 154.39 258.565 154.232 258.835C154.088 259.115 154.046 259.436 154.113 259.744L154.114 259.744Z" fill="#190000"/>
<path d="M181.79 293.388C181.904 293.283 182.018 293.179 182.141 293.084L181.902 293.269C182.022 293.175 182.153 293.097 182.292 293.035L182.011 293.154C182.099 293.118 182.192 293.093 182.286 293.079L181.973 293.121C182.036 293.114 182.101 293.113 182.164 293.12L181.851 293.078C181.904 293.086 181.955 293.101 182.004 293.121L181.723 293.002C181.778 293.027 181.831 293.058 181.879 293.095L181.64 292.91C181.693 292.953 181.74 293.001 181.782 293.054L181.597 292.816C181.632 292.863 181.661 292.914 181.685 292.968L181.566 292.687C181.585 292.733 181.598 292.781 181.605 292.83L181.563 292.517C181.567 292.552 181.567 292.588 181.563 292.624L181.605 292.31C181.6 292.346 181.591 292.38 181.578 292.413L181.697 292.131C181.684 292.159 181.669 292.186 181.651 292.211L181.836 291.972L181.798 292.016C181.581 292.24 181.458 292.538 181.453 292.85C181.455 293.162 181.579 293.461 181.798 293.683C182.02 293.903 182.319 294.027 182.631 294.028C182.943 294.025 183.242 293.901 183.465 293.683C183.557 293.587 183.638 293.482 183.708 293.369C183.717 293.354 183.725 293.338 183.733 293.321C183.786 293.217 183.831 293.109 183.866 292.998C183.871 292.981 183.874 292.964 183.877 292.946C183.9 292.831 183.916 292.714 183.923 292.597C183.922 292.459 183.906 292.32 183.875 292.185C183.868 292.149 183.859 292.113 183.846 292.078C183.802 291.947 183.747 291.821 183.681 291.7C183.61 291.587 183.53 291.48 183.442 291.38C183.414 291.345 183.385 291.313 183.353 291.283C183.017 290.964 182.577 290.778 182.114 290.758C182.014 290.758 181.914 290.767 181.815 290.785C181.711 290.795 181.608 290.812 181.506 290.837C181.368 290.882 181.233 290.936 181.101 290.999C181.049 291.022 180.997 291.047 180.948 291.075C180.761 291.189 180.585 291.318 180.419 291.46C180.316 291.542 180.219 291.632 180.123 291.722C179.662 292.182 179.662 292.928 180.123 293.388C180.344 293.609 180.644 293.733 180.956 293.734C181.267 293.725 181.564 293.602 181.789 293.388H181.79Z" fill="#190000"/>
<path d="M131.874 436.15C137.423 441.16 144.348 444.39 151.753 445.421C152.377 445.57 153.011 445.21 153.202 444.597C153.371 443.97 153.004 443.324 152.379 443.148C145.373 442.214 138.81 439.195 133.541 434.483C132.416 433.471 130.744 435.133 131.874 436.15Z" fill="#BA393C"/>
<path d="M67.4221 334.325C67.3685 334.531 67.3092 334.736 67.2413 334.937C67.2112 335.027 67.1797 335.116 67.1467 335.205C67.1261 335.26 67.1049 335.315 67.0831 335.37C67.0688 335.406 67.0018 335.564 67.0755 335.393C67.1543 335.211 67.0685 335.408 67.0506 335.448L66.9915 335.577C66.9467 335.673 66.9 335.769 66.8512 335.864C66.7542 336.053 66.6506 336.239 66.5404 336.421C66.4363 336.593 66.3264 336.761 66.2108 336.925C66.1497 337.012 66.0857 337.097 66.0227 337.183C65.9331 337.305 66.1739 336.996 66.0766 337.112C66.0386 337.157 66.0025 337.204 65.9647 337.25C65.6924 337.577 65.397 337.884 65.081 338.169C64.6252 338.631 64.6252 339.374 65.081 339.836C65.547 340.282 66.2817 340.282 66.7477 339.836C68.1817 338.527 69.2055 336.83 69.6951 334.951C69.8071 334.545 69.6939 334.11 69.3982 333.81C69.1025 333.51 68.6693 333.391 68.2617 333.497C67.8541 333.603 67.534 333.919 67.4221 334.325V334.325Z" fill="#BA393C"/>
<path d="M288.123 357.668C288.432 359.907 288.3 362.185 287.735 364.373C287.562 365.001 287.931 365.65 288.559 365.823C289.186 365.996 289.835 365.627 290.008 365C290.631 362.608 290.791 360.12 290.481 357.668C290.464 357.024 289.946 356.506 289.302 356.489C288.732 356.515 288.038 357.013 288.123 357.668Z" fill="#BA393C"/>
<path d="M61.944 261.361H60.778C60.1344 261.378 59.6167 261.896 59.5993 262.54L59.6415 262.853C59.6955 263.05 59.7997 263.229 59.9439 263.374C60.1677 263.591 60.4657 263.714 60.7774 263.719H61.9433C62.587 263.702 63.1049 263.184 63.122 262.54L63.0798 262.227C63.0259 262.03 62.9217 261.851 62.7774 261.706C62.5536 261.489 62.2556 261.366 61.944 261.361V261.361Z" fill="#E84B23"/>
<path d="M404.605 388.695C404.605 388.695 420.624 358.791 432.928 349.436C444.251 340.826 449.569 342.901 450.654 338.682C451.482 335.46 438.553 340.206 436.945 336.59C435.337 332.974 441.928 321.627 447.322 319.465C451.872 317.641 448.12 315.088 442.851 316.148C435.825 317.561 425.052 333.275 422.159 341.412C419.266 349.548 398.447 364.617 391.04 378.21C385.391 388.58 404.605 388.695 404.605 388.695Z" fill="#FF9763"/>
<mask id="mask18_1302_52" style="mask-type:luminance" maskUnits="userSpaceOnUse" x="390" y="315" width="61" height="74">
<path fill-rule="evenodd" clip-rule="evenodd" d="M404.605 388.695C404.605 388.695 420.624 358.791 432.928 349.436C444.251 340.826 449.569 342.901 450.654 338.682C451.482 335.46 438.553 340.206 436.945 336.59C435.337 332.974 441.928 321.627 447.322 319.465C451.872 317.641 448.12 315.088 442.851 316.148C435.825 317.561 425.052 333.275 422.159 341.412C419.266 349.548 398.447 364.617 391.04 378.21C385.391 388.58 404.605 388.695 404.605 388.695Z" fill="white"/>
</mask>
<g mask="url(#mask18_1302_52)">
<path d="M394.305 365.339C401.893 378.748 409.111 374.121 412.627 384.485C416.143 394.849 393.026 386.182 393.026 386.182L388.383 362.647" fill="#E84B23"/>
</g>
<path d="M272.658 556.633C272.755 558.864 283.804 590.799 286.842 640.367L273.59 780.036C273.59 780.036 311.914 785.761 316.623 781.102C316.623 781.102 339.334 488.382 322.411 477.094C310.81 469.354 287.852 493.415 287.852 493.415L272.658 556.633Z" fill="#274B69"/>
<path d="M314.622 483.292C314.622 483.292 279.165 432.605 262.453 452.984C248.093 470.494 243.88 615.42 243.88 615.42C234.057 658.867 180.165 758.404 180.165 758.404C177.57 757.787 201.042 785.313 213.265 777.914C213.265 777.914 257.634 716.805 286.842 640.367C286.842 640.367 297.536 564.749 307.663 521.673" fill="#274B69"/>
<path d="M396.648 368.287C395.944 370.709 407.085 380.321 408.271 382.889C408.271 382.889 394.19 407.235 379.594 414.297C364.999 421.359 311.983 410.513 311.983 410.513L294.787 366.32C294.787 366.32 371.924 387.14 378.516 384.933C384.072 383.072 390.768 375.299 392.733 372.904C392.837 372.777 396.693 368.133 396.648 368.287Z" fill="#FFC562"/>
<mask id="mask19_1302_52" style="mask-type:luminance" maskUnits="userSpaceOnUse" x="294" y="366" width="115" height="51">
<path fill-rule="evenodd" clip-rule="evenodd" d="M396.648 368.287C395.944 370.709 407.085 380.321 408.271 382.889C408.271 382.889 394.19 407.235 379.594 414.297C364.999 421.359 311.983 410.513 311.983 410.513L294.787 366.32C294.787 366.32 371.924 387.14 378.516 384.933C384.072 383.072 390.768 375.299 392.733 372.904C392.837 372.777 396.693 368.133 396.648 368.287Z" fill="white"/>
</mask>
<g mask="url(#mask19_1302_52)">
<path d="M390.001 409.839C333.494 426.742 335.891 400.129 317.688 386.182C304.54 376.109 309.175 421.313 309.175 421.313L378.513 426.495" fill="#D89D35"/>
</g>
<path d="M294.787 366.32L272.618 366.206C270.521 366.452 268.454 366.904 266.446 367.557C258.869 368.587 209.253 389.032 195.48 449.672C188.367 480.995 219.397 463.208 219.397 463.208C219.397 463.208 228.605 439.604 245.821 425.739C247.309 430.816 249.07 435.81 251.097 440.697C255.223 449.846 253.465 460.576 246.635 467.93C244.925 469.879 244.332 472.568 245.065 475.055C245.798 477.542 247.754 479.48 250.248 480.19C268.226 486.094 301.461 494.44 324.7 485.097C326.867 484.297 328.546 482.545 329.256 480.347C329.965 478.148 329.625 475.746 328.335 473.83C322.303 464.875 313.515 448.917 319.288 438.785C325.467 427.939 333.007 404.836 319.013 385.237" fill="#FFC562"/>
<mask id="mask20_1302_52" style="mask-type:luminance" maskUnits="userSpaceOnUse" x="194" y="366" width="136" height="124">
<path fill-rule="evenodd" clip-rule="evenodd" d="M294.787 366.32L272.618 366.206C270.521 366.452 268.454 366.904 266.446 367.557C258.869 368.587 209.253 389.032 195.48 449.672C188.367 480.995 219.397 463.208 219.397 463.208C219.397 463.208 228.605 439.604 245.821 425.739C247.309 430.816 249.07 435.81 251.097 440.697C255.223 449.846 253.465 460.576 246.635 467.93C244.925 469.879 244.332 472.568 245.065 475.055C245.798 477.542 247.754 479.48 250.248 480.19C268.226 486.094 301.461 494.44 324.7 485.097C326.867 484.297 328.546 482.545 329.256 480.347C329.965 478.148 329.625 475.746 328.335 473.83C322.303 464.875 313.515 448.917 319.288 438.785C325.467 427.939 333.007 404.836 319.013 385.237" fill="white"/>
</mask>
<g mask="url(#mask20_1302_52)">
<path d="M257.785 416.686C242.627 425.722 281.622 434.528 264.128 451.228C246.634 467.929 273.103 485.846 284.311 487.523C295.518 489.199 249.477 489.292 249.477 489.292L238.547 465.806L244.571 426.779L257.785 416.686Z" fill="#D89D35"/>
<path d="M299.97 407.104L282.677 443.982L323.26 440.518L299.97 407.104Z" fill="#F0F3FC"/>
<circle cx="285.7" cy="417.721" r="15.0629" fill="#935738"/>
<rect x="306.767" y="404.111" width="21.9111" height="21.9111" fill="#FE7578"/>
</g>
<path d="M298.145 344.495V369.262C298.145 369.262 311.681 386.228 301.823 386.182C292.123 386.138 274.081 374.471 274.817 369.812L274.795 332.667L298.145 344.495Z" fill="#FF9763"/>
<mask id="mask21_1302_52" style="mask-type:luminance" maskUnits="userSpaceOnUse" x="274" y="332" width="32" height="55">
<path fill-rule="evenodd" clip-rule="evenodd" d="M298.145 344.495V369.262C298.145 369.262 311.681 386.228 301.823 386.182C292.123 386.138 274.081 374.471 274.817 369.812L274.795 332.667L298.145 344.495Z" fill="white"/>
</mask>
<g mask="url(#mask21_1302_52)">
<path d="M311.553 366.443C287.59 366.205 294.554 349.36 289.099 349.249C283.643 349.137 300.104 343.242 300.104 343.242L312.562 357.501L311.553 366.443Z" fill="#E84B23"/>
</g>
<path d="M288.715 350.192C290.432 350.806 292.222 351.199 294.039 351.359C302.723 351.359 305.852 339.895 305.852 327.324C305.856 324.451 305.471 321.592 304.707 318.823C300.702 313.235 286.424 311.037 282.988 307.046C282.649 307.297 282.321 307.571 281.996 307.855C277.877 311.469 274.992 317.733 274.487 325.023C271.867 324.829 269.365 326.139 268.032 328.402C266.698 330.665 266.766 333.489 268.205 335.686C269.644 337.883 272.206 339.073 274.814 338.754C275.372 338.752 275.929 338.696 276.477 338.586" fill="#FF9763"/>
<mask id="mask22_1302_52" style="mask-type:luminance" maskUnits="userSpaceOnUse" x="267" y="307" width="39" height="45">
<path fill-rule="evenodd" clip-rule="evenodd" d="M288.715 350.192C290.432 350.806 292.222 351.199 294.039 351.359C302.723 351.359 305.852 339.895 305.852 327.324C305.856 324.451 305.471 321.592 304.707 318.823C300.702 313.235 286.424 311.037 282.988 307.046C282.649 307.297 282.321 307.571 281.996 307.855C277.877 311.469 274.992 317.733 274.487 325.023C271.867 324.829 269.365 326.139 268.032 328.402C266.698 330.665 266.766 333.489 268.205 335.686C269.644 337.883 272.206 339.073 274.814 338.754C275.372 338.752 275.929 338.696 276.477 338.586" fill="white"/>
</mask>
<g mask="url(#mask22_1302_52)">
<ellipse opacity="0.27" cx="307.79" cy="338.149" rx="5.16046" ry="6.96125" transform="rotate(-66.7758 307.79 338.149)" fill="#E84B23"/>
<ellipse opacity="0.27" cx="284.61" cy="335.035" rx="3.76992" ry="5.08553" transform="rotate(-66.7758 284.61 335.035)" fill="#E84B23"/>
<rect x="303.84" y="331.898" width="3.65165" height="6.73512" rx="1.82582" transform="rotate(179.873 303.84 331.898)" fill="#190000"/>
<rect x="290.288" y="330.881" width="3.65166" height="6.73514" rx="1.82582" transform="rotate(179.874 290.288 330.881)" fill="#190000"/>
<path d="M302.446 320.862C306.174 321.941 305.153 323.974 302.778 323.452C300.403 322.929 300.01 320.157 302.446 320.862Z" fill="#190000"/>
<path d="M288.531 319.723C284.807 320.819 285.555 322.692 287.928 322.159C290.3 321.627 290.964 319.008 288.531 319.723Z" fill="#190000"/>
<path d="M293.99 331.658C293.854 332.884 294.958 332.515 296.254 332.66C297.55 332.805 298.546 333.408 298.683 332.181C298.755 330.927 297.833 329.836 296.584 329.697C295.336 329.557 294.197 330.419 293.99 331.658Z" fill="#E84B23"/>
<path d="M300.69 338.981C298.241 347.694 290.218 343.24 290.563 337.72C290.585 337.435 290.784 337.194 291.06 337.117C294.165 336.396 297.425 336.764 300.292 338.159C300.611 338.296 300.781 338.646 300.69 338.981Z" fill="#C1525F"/>
<mask id="mask23_1302_52" style="mask-type:luminance" maskUnits="userSpaceOnUse" x="290" y="336" width="11" height="8">
<path fill-rule="evenodd" clip-rule="evenodd" d="M300.69 338.981C298.241 347.694 290.218 343.24 290.563 337.72C290.585 337.435 290.784 337.194 291.06 337.117C294.165 336.396 297.425 336.764 300.292 338.159C300.611 338.296 300.781 338.646 300.69 338.981Z" fill="white"/>
</mask>
<g mask="url(#mask23_1302_52)">
<ellipse cx="293.912" cy="343.299" rx="4.04964" ry="4.53734" transform="rotate(-65.7001 293.912 343.299)" fill="#993443"/>
<path d="M299.264 337.413C299.245 337.935 299.114 338.447 298.882 338.914C297.841 339.699 293.327 338.793 292.76 338.214C292.69 337.532 292.701 336.844 292.791 336.164L298.606 337.018" fill="#F0F3FC"/>
</g>
</g>
<path d="M254.719 508.388C254.719 508.388 263.609 509.773 273.049 496.964C274.667 494.769 263.329 489.111 256.286 485.57C249.973 482.395 222.914 459.392 217.37 454.656C216.678 454.064 215.798 453.739 214.887 453.74C208.339 453.498 202.297 457.251 199.611 463.228C199.221 464.111 199.588 465.145 200.448 465.584C207.769 469.486 238.073 488.284 247.239 493.612C249.353 495.815 248.615 507.187 254.719 508.388Z" fill="#FF9763"/>
<mask id="mask24_1302_52" style="mask-type:luminance" maskUnits="userSpaceOnUse" x="199" y="453" width="75" height="56">
<path fill-rule="evenodd" clip-rule="evenodd" d="M254.719 508.388C254.719 508.388 263.609 509.773 273.049 496.964C274.667 494.769 263.329 489.111 256.286 485.57C249.973 482.395 222.914 459.392 217.37 454.656C216.678 454.064 215.798 453.739 214.887 453.74C208.339 453.498 202.297 457.251 199.611 463.228C199.221 464.111 199.588 465.145 200.448 465.584C207.769 469.486 238.073 488.284 247.239 493.612C249.352 495.815 248.615 507.187 254.719 508.388Z" fill="white"/>
</mask>
<g mask="url(#mask24_1302_52)">
<path d="M219.788 452.867C200.911 457.309 203.41 468.598 203.41 468.598L192.861 463.879L197.395 454.81L215.253 449.536" fill="#E84B23"/>
</g>
<path d="M279.045 294.349C248.298 295.793 229.065 348.166 274.108 349.865C274.108 349.865 278.918 342.87 276.477 338.586C275.93 338.695 275.373 338.751 274.814 338.754C272.207 339.072 269.645 337.882 268.205 335.685C266.766 333.488 266.699 330.664 268.032 328.401C269.365 326.138 271.868 324.828 274.487 325.022C286.117 323.221 282.988 307.046 282.988 307.046C286.425 311.037 300.818 322.162 307.664 317.659C308.076 317.394 308.457 317.083 308.799 316.733C315.44 309.839 300.379 293.346 279.045 294.349Z" fill="#3A3530"/>
<path d="M261.059 414.309C252.751 417.078 244.571 426.778 244.571 426.778L261.059 414.309Z" fill="#FFC562"/>
<path d="M274.03 494.324C270.095 508.024 253.189 509.481 253.189 509.481" stroke="#11314B" stroke-width="2.32932" stroke-linecap="round" stroke-linejoin="round"/>
<path d="M274.548 329.187L274.504 329.174C274.448 329.163 274.374 329.156 274.329 329.15C274.277 329.143 274.209 329.13 274.15 329.127C274.136 329.126 274.121 329.126 274.106 329.127L274.094 329.128C274.019 329.136 273.853 329.159 273.778 329.171L273.753 329.175L273.711 329.187C273.602 329.226 273.494 329.272 273.39 329.324L273.351 329.346L273.332 329.359C273.248 329.42 273.159 329.489 273.079 329.555C273.054 329.575 273.032 329.597 273.011 329.621C272.945 329.702 272.879 329.789 272.817 329.873L272.803 329.892L272.778 329.934C272.749 329.992 272.723 330.051 272.7 330.112C272.677 330.168 272.644 330.233 272.625 330.295L272.614 330.338C272.591 330.456 272.575 330.575 272.567 330.695C272.566 330.712 272.566 330.729 272.568 330.745L272.569 330.758C272.581 330.854 272.596 330.982 272.612 331.077L272.617 331.101C272.653 331.214 272.698 331.323 272.752 331.427C272.759 331.444 272.768 331.46 272.778 331.476C273.013 331.891 273.482 332.116 273.953 332.038C274.108 332.032 274.26 331.983 274.391 331.899L274.629 331.714C274.774 331.569 274.878 331.39 274.932 331.193L274.974 330.88C274.974 330.671 274.919 330.465 274.813 330.285C274.802 330.269 274.793 330.252 274.785 330.234L274.904 330.516C274.894 330.493 274.888 330.468 274.884 330.444L274.926 330.757C274.923 330.728 274.923 330.699 274.926 330.67L274.884 330.983C274.889 330.948 274.899 330.913 274.913 330.88L274.794 331.161C274.81 331.125 274.83 331.091 274.854 331.06L274.669 331.299C274.693 331.268 274.721 331.24 274.752 331.216L274.514 331.401C274.541 331.38 274.57 331.363 274.601 331.349L274.32 331.468C274.347 331.457 274.375 331.449 274.404 331.445L274.09 331.487C274.117 331.483 274.144 331.483 274.171 331.487L273.858 331.445C273.879 331.448 273.9 331.454 273.92 331.461C274.073 331.51 274.235 331.518 274.391 331.482C274.547 331.476 274.698 331.427 274.829 331.343C275.086 331.178 275.277 330.929 275.371 330.638L275.413 330.325C275.413 330.116 275.358 329.91 275.252 329.73L275.067 329.492C274.923 329.347 274.743 329.243 274.546 329.189L274.548 329.187Z" fill="#190000"/>
<path d="M289.126 462.478C294.706 464.928 300.937 465.474 306.858 464.031C308.331 463.67 307.707 461.396 306.231 461.758C300.924 463.064 295.336 462.602 290.316 460.443C289.751 460.136 289.045 460.321 288.703 460.866C288.379 461.428 288.567 462.147 289.126 462.478L289.126 462.478Z" fill="#D89D35"/>
<path d="M376.565 386.753C376.161 388.441 376.364 390.218 377.138 391.772C377.469 392.331 378.188 392.52 378.751 392.195C379.299 391.856 379.485 391.146 379.174 390.582C379.137 390.507 379.103 390.431 379.067 390.355C379.017 390.251 379.173 390.623 379.076 390.372C379.02 390.228 378.969 390.081 378.925 389.933C378.836 389.636 378.77 389.332 378.726 389.025L378.768 389.339C378.694 388.795 378.692 388.243 378.761 387.698L378.719 388.012C378.749 387.799 378.789 387.588 378.839 387.379C379.012 386.752 378.643 386.102 378.016 385.929C377.388 385.756 376.739 386.125 376.566 386.753L376.565 386.753Z" fill="#D89D35"/>
<path d="M267.558 308.207C267.562 308.474 267.543 308.735 267.522 309.001C267.51 309.163 267.573 308.704 267.525 308.977C267.515 309.032 267.506 309.087 267.495 309.142C267.469 309.279 267.439 309.415 267.404 309.55C267.336 309.808 267.247 310.055 267.155 310.305C267.1 310.456 267.277 310.043 267.159 310.293C267.135 310.343 267.112 310.394 267.088 310.444C267.027 310.57 266.963 310.693 266.894 310.815C266.768 311.033 266.632 311.244 266.485 311.448C266.326 311.673 266.595 311.32 266.491 311.442C266.446 311.495 266.403 311.551 266.358 311.603C266.276 311.699 266.191 311.792 266.104 311.882C266.007 311.982 265.907 312.079 265.804 312.172C265.743 312.227 265.538 312.342 265.518 312.416C265.539 312.342 265.695 312.286 265.524 312.409C265.468 312.45 265.41 312.489 265.352 312.528C265.236 312.606 265.117 312.679 264.996 312.749C264.435 313.078 264.247 313.799 264.575 314.36C264.903 314.921 265.624 315.111 266.186 314.784C268.511 313.412 269.932 310.907 269.916 308.207C269.921 307.782 269.698 307.388 269.331 307.174C268.964 306.96 268.511 306.96 268.144 307.174C267.777 307.388 267.554 307.782 267.559 308.207L267.558 308.207Z" fill="#190000"/>
<path d="M435.886 336.078L434.574 336.733C434.158 336.968 433.933 337.437 434.011 337.908C434.018 338.064 434.066 338.215 434.151 338.346C434.307 338.611 434.559 338.805 434.855 338.887L435.169 338.93C435.378 338.93 435.583 338.874 435.764 338.769L437.075 338.114C437.491 337.879 437.716 337.41 437.638 336.939C437.631 336.783 437.583 336.632 437.498 336.501C437.342 336.236 437.09 336.042 436.794 335.959L436.48 335.917C436.271 335.917 436.066 335.972 435.886 336.078Z" fill="#E84B23"/>
<path d="M258.433 400.771C261.028 404.542 260.936 409.546 258.205 413.219C257.765 413.687 257.765 414.418 258.205 414.886C258.667 415.342 259.41 415.342 259.872 414.886C263.355 410.448 263.595 404.276 260.469 399.581C259.608 398.345 257.564 399.522 258.433 400.771V400.771Z" fill="#D89D35"/>
</g>
<rect x="382.707" y="323.792" width="30.3596" height="54.9244" rx="6.02616" fill="#2976DF"/>
<mask id="mask25_1302_52" style="mask-type:luminance" maskUnits="userSpaceOnUse" x="382" y="323" width="32" height="56">
<rect x="382.707" y="323.792" width="30.3596" height="54.9244" rx="6.02616" fill="white"/>
</mask>
<g mask="url(#mask25_1302_52)">
<path d="M393.831 358.691C401.91 373.652 399.221 383.699 399.221 383.699H413.321L415.46 357.616H388.463" fill="#1665C4"/>
</g>
<rect x="386.612" y="329.335" width="8.17068" height="10.0778" rx="1.88798" fill="#589BF7"/>
<path d="M400.83 357.616C400.83 357.616 410.673 372.733 402.955 389.55" stroke="#3A3530" stroke-width="1.34232" stroke-linecap="round" stroke-linejoin="round"/>
<rect x="394.783" y="394.464" width="6.04666" height="98.2279" fill="#589BF7"/>
<mask id="mask26_1302_52" style="mask-type:luminance" maskUnits="userSpaceOnUse" x="394" y="394" width="7" height="99">
<rect x="394.783" y="394.464" width="6.04666" height="98.2279" fill="white"/>
</mask>
<g mask="url(#mask26_1302_52)">
<path d="M393.353 429.561C394.856 416.477 402.362 415.771 402.362 415.771L402.955 408.379L390.256 410.328" fill="#2976DF"/>
</g>
<rect x="392.657" y="406.179" width="10.2984" height="10.2984" rx="2.19946" fill="#F0F3FC"/>
<path fill-rule="evenodd" clip-rule="evenodd" d="M355.644 333.621C362.707 316.568 379.348 305.449 397.806 305.449C409.91 305.449 421.517 310.257 430.076 318.816C438.634 327.374 443.442 338.982 443.442 351.085C443.442 369.543 432.324 386.184 415.271 393.248C398.217 400.311 378.588 396.407 365.537 383.355C352.485 370.303 348.58 350.674 355.644 333.621ZM364.447 364.903C370.035 378.396 383.202 387.193 397.806 387.193C417.748 387.193 433.914 371.027 433.914 351.085C433.914 336.481 425.117 323.314 411.624 317.726C398.132 312.137 382.601 315.226 372.274 325.553C361.947 335.88 358.858 351.411 364.447 364.903Z" fill="#F0F3FC"/>
<mask id="mask27_1302_52" style="mask-type:luminance" maskUnits="userSpaceOnUse" x="352" y="305" width="92" height="92">
<path fill-rule="evenodd" clip-rule="evenodd" d="M397.806 305.449C379.348 305.449 362.707 316.568 355.644 333.621C348.58 350.674 352.485 370.303 365.537 383.355C378.589 396.407 398.217 400.311 415.271 393.248C432.324 386.184 443.442 369.543 443.442 351.085C443.442 338.982 438.634 327.374 430.076 318.816C421.517 310.257 409.91 305.449 397.806 305.449ZM397.806 387.193C383.202 387.193 370.035 378.396 364.447 364.903C358.858 351.411 361.947 335.88 372.274 325.553C382.601 315.226 398.132 312.137 411.624 317.726C425.117 323.314 433.914 336.481 433.914 351.085C433.914 371.027 417.748 387.193 397.806 387.193Z" fill="white"/>
</mask>
<g mask="url(#mask27_1302_52)">
<path d="M428.234 362.529C447.794 367.783 462.79 355.096 462.79 355.096L443.442 388.288L420.737 373.583" fill="#D6DCF2"/>
</g>
<rect x="380.44" y="349.617" width="35.0206" height="10.9596" rx="1.23396" fill="#9A7ED9"/>
<circle cx="400.83" cy="354.215" r="8.31432" fill="#6F4EB9"/>
<path d="M403.519 338.423L401.895 341.035C401.715 341.35 401.82 341.751 402.131 341.937C402.447 342.113 402.845 342.009 403.033 341.701L404.657 339.089C404.837 338.774 404.732 338.373 404.421 338.187C404.105 338.011 403.707 338.115 403.519 338.423Z" fill="#1665C4"/>
<path d="M399.732 452.404L399.08 453.056C398.833 453.317 398.833 453.726 399.08 453.988C399.204 454.111 399.372 454.18 399.547 454.181L399.722 454.157C399.832 454.127 399.932 454.069 400.013 453.988L400.665 453.336C400.912 453.075 400.912 452.665 400.665 452.404C400.541 452.28 400.373 452.211 400.199 452.211L400.023 452.234C399.913 452.265 399.813 452.323 399.732 452.404Z" fill="#2976DF"/>
<rect x="84.9601" y="337.163" width="5.61002" height="150.53" fill="#F0F3FC"/>
<mask id="mask28_1302_52" style="mask-type:luminance" maskUnits="userSpaceOnUse" x="84" y="337" width="7" height="151">
<rect x="84.9601" y="337.163" width="5.61002" height="150.53" fill="white"/>
</mask>
<g mask="url(#mask28_1302_52)">
<path d="M92.606 376.911C63.4138 379.117 91.3483 407.07 92.606 408.318C93.8636 409.567 106.974 386.059 106.974 386.059L104.014 375.674" fill="#D6DCF2"/>
</g>
<rect x="91.6046" y="306.94" width="5.56298" height="31.4987" transform="rotate(12.9421 91.6046 306.94)" fill="#F0F3FC"/>
<circle cx="87.3677" cy="336.164" r="6.51336" fill="#2976DF"/>
<path d="M81.3574 488.705L80.7925 488.472C85.9094 475.631 90.2742 462.503 93.8646 449.154C101.097 421.724 101.511 402.555 95.0615 393.72C89.983 386.763 79.7498 381.063 69.8537 375.55C56.4305 368.072 43.7511 361.009 43.0374 351.057C42.567 344.502 47.4466 337.42 57.9558 329.408L58.3254 329.893C47.9934 337.771 43.1921 344.68 43.6467 351.014C44.3365 360.635 56.8756 367.621 70.1511 375.016C80.1048 380.561 90.3973 386.295 95.5547 393.36C102.21 402.478 101.84 421.304 94.4536 449.316C90.8563 462.689 86.4835 475.84 81.3574 488.705Z" fill="#3A3530"/>
<path d="M58.3447 331.397L69.0435 326.355C69.4126 326.18 69.6934 325.861 69.8191 325.473C69.9449 325.085 69.9045 324.662 69.7076 324.304L68.9806 322.987C68.7835 322.629 68.4473 322.369 68.0517 322.268C67.6561 322.167 67.2364 322.235 66.8922 322.454L56.9203 328.814C56.2633 329.233 56.0448 330.091 56.421 330.773C56.7977 331.456 57.6395 331.729 58.3447 331.397Z" fill="#9A7ED9"/>
<ellipse cx="73.6456" cy="321.869" rx="7.03886" ry="8.79749" transform="rotate(-28.8805 73.6456 321.869)" fill="#589BF7"/>
<rect x="127.491" y="303.836" width="55.1749" height="20.4352" rx="3.91978" transform="rotate(151.12 127.491 303.836)" fill="#9A7ED9"/>
<rect x="119.239" y="309.725" width="48.2677" height="22.7774" rx="3.91154" transform="rotate(151.12 119.239 309.725)" fill="#589BF7"/>
<mask id="mask29_1302_52" style="mask-type:luminance" maskUnits="userSpaceOnUse" x="67" y="291" width="51" height="41">
<rect x="119.239" y="309.725" width="48.2677" height="22.7774" rx="3.91154" transform="rotate(151.12 119.239 309.725)" fill="white"/>
</mask>
<g mask="url(#mask29_1302_52)">
<path d="M91.3364 303.95C86.6448 302.163 100.163 320.188 89.649 329.201C79.1347 338.213 103.167 338.213 104.669 336.71C106.171 335.208 107.674 308.171 107.674 308.171" fill="#2976DF"/>
</g>
<path d="M121.391 309.933L104.181 319.426C102.036 320.61 99.338 319.83 98.1549 317.685L90.258 303.368C89.0749 301.223 89.8546 298.526 91.9994 297.343L109.21 287.85C114.746 284.796 121.709 286.808 124.763 292.344L125.886 294.381C128.94 299.917 126.927 306.88 121.391 309.934L121.391 309.933Z" fill="#935738"/>
<mask id="mask30_1302_52" style="mask-type:luminance" maskUnits="userSpaceOnUse" x="89" y="286" width="39" height="34">
<path fill-rule="evenodd" clip-rule="evenodd" d="M121.391 309.933L104.181 319.426C102.036 320.61 99.338 319.83 98.1549 317.685L90.258 303.368C89.0749 301.223 89.8546 298.526 91.9994 297.343L109.21 287.85C114.746 284.796 121.709 286.808 124.763 292.344L125.886 294.381C128.94 299.917 126.927 306.88 121.391 309.934L121.391 309.933Z" fill="white"/>
</mask>
<g mask="url(#mask30_1302_52)">
<path d="M115.318 286.447C132.983 293.688 119.449 316.747 119.449 316.747L133.3 305.318L123.996 282.48L107.714 286.181" fill="#6D3417"/>
</g>
<rect x="104.759" y="321.201" width="4.0871" height="28.8847" rx="2.04355" transform="rotate(151.12 104.759 321.201)" fill="#9A7ED9"/>
<path d="M106.968 299.327V301.864C106.968 302.179 107.223 302.434 107.538 302.434C107.853 302.434 108.108 302.179 108.108 301.864V299.327C108.108 299.012 107.853 298.757 107.538 298.757C107.223 298.757 106.968 299.012 106.968 299.327Z" fill="#6D3417"/>
<path d="M78.2447 318.633L77.1391 322.868C77.0616 323.169 77.24 323.477 77.5401 323.56C77.8401 323.642 78.1509 323.469 78.2384 323.17L79.3441 318.935C79.402 318.738 79.3489 318.524 79.205 318.377C79.0611 318.229 78.8489 318.171 78.6499 318.224C78.4509 318.277 78.296 318.434 78.2447 318.633Z" fill="#2976DF"/>
<path d="M88.6224 424.392L88.8972 425.24C88.9396 425.382 89.0329 425.504 89.1591 425.581C89.2226 425.622 89.2957 425.645 89.3711 425.648C89.4464 425.665 89.5248 425.662 89.5983 425.638C89.9015 425.554 90.0795 425.24 89.9964 424.937L89.7216 424.089C89.6794 423.947 89.5861 423.826 89.4597 423.748C89.3963 423.707 89.3232 423.684 89.2478 423.681C89.1725 423.664 89.094 423.668 89.0205 423.691C88.8747 423.731 88.7509 423.828 88.6762 423.959C88.6015 424.091 88.5822 424.247 88.6224 424.392V424.392Z" fill="#D6DCF2"/>
<rect x="43.0063" y="479.909" width="377.773" height="25.9859" rx="12.993" fill="#9A7ED9"/>
<mask id="mask31_1302_52" style="mask-type:luminance" maskUnits="userSpaceOnUse" x="43" y="479" width="378" height="27">
<rect x="43.0063" y="479.909" width="377.773" height="25.9859" rx="12.993" fill="white"/>
</mask>
<g mask="url(#mask31_1302_52)">
<path d="M49.4192 526.296C19.104 481.255 431.709 498.686 443.442 493.469C455.176 488.251 484.943 559.261 433.914 564.565C382.886 569.869 140.365 572.263 140.365 572.263" fill="#6F4EB9"/>
</g>
</svg>
